# xmcd
#
# Track frame offsets:
#	150
#	1731
#	7469
#	9831
#	17857
#	23577
#	29838
#	39882
#	45430
#	48607
#	54067
#	60132
#	66661
#	88803
#	101798
#	115012
#	132832
#	135363
#	147321
#	162108
#	178972
#	183578
#	197705
#	206464
#	222115
#	235699
#	244634
#	257905
#	295188
#	310324
#	314924
#	322460
#	330377
#
# Disc length: 4423 seconds
#
# Revision: 0
# Processed by: cddbd v1.5.2PL0 Copyright (c) Steve Scherf et al.
# Submitted via: EasyCDDAExtractor 15.3.0.1
#
DISCID=d9114521
DTITLE=Ray Charles - Pure Genius_The Complete Atlantic Recordings [1952-1959] 
DTITLE=cd7
DYEAR=1900
DGENRE=Rhythm and Blues
TTITLE0=Baby Let Me Hold Your Hand [#]
TTITLE1=Unknown Title [#]
TTITLE2=Piano Improvisation and Dialog #1 [#]
TTITLE3="Losing Hand" and Dialog #1 [#]
TTITLE4="Little Rock Getaway" and Dialog
TTITLE5=Kentucky Waltz [#]
TTITLE6=Heartbreaker [Instrumental Version][#]
TTITLE7="Heartbreaker" and Dialog [#]
TTITLE8=Piano Improvisation and Dialog #2 [#]
TTITLE9=Heartbreaker [False Starts 1-2][#]
TTITLE10="Losing Hand" and Dialog #2 [#]
TTITLE11="Losing Hand" and Dialog #3 [W/Reverb][#]
TTITLE12="Losing Hand" and Dialog #4 [W/Reverb]
TTITLE13=Heartbreaker [#]
TTITLE14="It Should've Been Me" and Dialog [#]
TTITLE15=Nobody Cares [#]
TTITLE16=Piano Improvisation and Dialog #3 [#]
TTITLE17=Mess Around [#]
TTITLE18=Funny (But I Still Love You) [#]
TTITLE19=Sinner's Prayer [#]
TTITLE20=Piano Improvisation and Dialog 4 [#]
TTITLE21="Low Society" and Dialog, No. 1 [#]
TTITLE22=Boogie Woogie [#]
TTITLE23="Low Society" and Dialog, No. 2 [#]
TTITLE24=Worried Life Blues [#]
TTITLE25="Come Back Baby" [Walter Davis Version][#]
TTITLE26=Low Society
TTITLE27=(Night Time Is) The Right Time [Takes 1-7][#]
TTITLE28=Tell Me How Do You Feel [Take 1][#]
TTITLE29=Dialog [#]
TTITLE30="It Had to Be You" and Dialog [#]
TTITLE31="My Buddy" and Dialog [#]
TTITLE32=Dialog [#]
EXTD=
EXTT0=
EXTT1=
EXTT2=
EXTT3=
EXTT4=
EXTT5=
EXTT6=
EXTT7=
EXTT8=
EXTT9=
EXTT10=
EXTT11=
EXTT12=
EXTT13=
EXTT14=
EXTT15=
EXTT16=
EXTT17=
EXTT18=
EXTT19=
EXTT20=
EXTT21=
EXTT22=
EXTT23=
EXTT24=
EXTT25=
EXTT26=
EXTT27=
EXTT28=
EXTT29=
EXTT30=
EXTT31=
EXTT32=
PLAYORDER=
